<?xml version="1.0" encoding="UTF-8"?><!DOCTYPE svg PUBLIC "-//W3C//DTD SVG 1.1//EN" "http://www.w3.org/Graphics/SVG/1.1/DTD/svg11.dtd"><svg xmlns="http://www.w3.org/2000/svg"><symbol id="bed" viewBox="0 0 512 512"><path d="M475 246.127c-7.227 0-13.97 2.09-19.674 5.687C448.832 233.309 431.195 220 410.5 220h-237c-11.559 0-22.163 4.155-30.408 11.043-6.536-17.455-23.384-29.916-43.092-29.916a45.725 45.725 0 0 0-26 8.08V118c0-20.402-16.598-37-37-37S0 97.598 0 118v357c0 5.522 4.477 10 10 10h54c5.523 0 10-4.478 10-10v-44h145c5.523 0 10-4.478 10-10s-4.477-10-10-10H74V293.127h52v48.076a22.598 22.598 0 0 0 11.792 19.855 22.605 22.605 0 0 0 23.085-.86l.251-.162c8.339-5.381 19.129-5.401 27.487-.055l.822.525c14.935 9.555 34.211 9.516 49.107-.094l.584-.377c8.339-5.381 19.129-5.401 27.487-.055l.822.525c14.935 9.555 34.212 9.516 49.107-.094l.584-.377c8.338-5.381 19.128-5.401 27.487-.055l.822.525a45.405 45.405 0 0 0 24.483 7.141c8.574-.001 17.147-2.411 24.613-7.229l.594-.383c8.339-5.38 19.129-5.401 27.496-.049l.58.37a22.59 22.59 0 0 0 14.795 3.405V411H293.344c-5.523 0-10 4.478-10 10s4.477 10 10 10H438v44c0 5.522 4.477 10 10 10h54c5.523 0 10-4.478 10-10V283.127c0-20.401-16.598-37-37-37zm-421 37V465H20V118c0-9.374 7.626-17 17-17s17 7.626 17 17v165.127zm46-10c-14.336 0-26-11.663-26-26 0-14.336 11.664-26 26-26s26 11.664 26 26c0 14.337-11.664 26-26 26zM438.001 268h-99.594c-5.523 0-10 4.478-10 10s4.477 10 10 10H438v53.311c0 1.279-.738 1.951-1.357 2.29-.619.34-1.583.599-2.668-.096l-.58-.37c-14.935-9.555-34.211-9.518-49.107.094l-.584.377c-8.338 5.382-19.127 5.402-27.487.055l-.822-.525c-14.935-9.554-34.211-9.516-49.107.094l-.584.377c-8.338 5.382-19.128 5.402-27.487.055l-.822-.525a45.4 45.4 0 0 0-24.48-7.14 45.402 45.402 0 0 0-24.626 7.233l-.584.377c-8.338 5.382-19.128 5.402-27.487.055l-.822-.525c-14.935-9.553-34.211-9.516-49.117.101l-.251.162c-1.077.695-2.042.438-2.665.099-.621-.338-1.362-1.011-1.362-2.293V267.5c0-15.164 12.336-27.5 27.5-27.5h237c15.164 0 27.5 12.336 27.5 27.5v.5zM492 465h-34V283.127c0-9.374 7.626-17 17-17 9.374 0 17 7.626 17 17V465z"/><path d="M263.07 413.93c-1.86-1.86-4.44-2.93-7.07-2.93s-5.21 1.069-7.07 2.93c-1.86 1.86-2.93 4.44-2.93 7.07s1.07 5.21 2.93 7.069c1.86 1.86 4.44 2.931 7.07 2.931s5.21-1.07 7.07-2.931c1.86-1.859 2.93-4.439 2.93-7.069s-1.07-5.21-2.93-7.07zM358.345 81h-29.858l36.929-36.929A10 10 0 0 0 358.344 27h-54c-5.523 0-10 4.477-10 10s4.477 10 10 10h29.858l-36.929 36.929A10 10 0 0 0 304.345 101h54c5.523 0 10-4.477 10-10s-4.477-10-10-10zM256.001 121h-15.858l22.929-22.929A10 10 0 0 0 256 81h-40c-5.523 0-10 4.477-10 10s4.477 10 10 10h15.858l-22.929 22.929A10 10 0 0 0 216.001 141h40c5.523 0 10-4.477 10-10s-4.477-10-10-10zM172.305 157h-7.858l14.929-14.929A10 10 0 0 0 172.304 125h-32c-5.523 0-10 4.477-10 10s4.477 10 10 10h7.858l-14.929 14.929A10 10 0 0 0 140.305 177h32c5.523 0 10-4.477 10-10s-4.477-10-10-10zM311.42 270.93a10.095 10.095 0 0 0-7.08-2.93c-2.63 0-5.21 1.069-7.07 2.93-1.86 1.86-2.93 4.44-2.93 7.07s1.07 5.21 2.93 7.069c1.87 1.86 4.44 2.931 7.07 2.931s5.21-1.07 7.08-2.931c1.86-1.859 2.92-4.439 2.92-7.069s-1.06-5.21-2.92-7.07z"/></symbol><symbol id="close-envelope" viewBox="0 0 14 14"><path d="M7 9L5.268 7.484.316 11.729c.18.167.423.271.691.271h11.986c.267 0 .509-.104.688-.271L8.732 7.484z"/><path d="M13.684 2.271A1.007 1.007 0 0 0 12.993 2H1.007c-.267 0-.509.104-.689.273L7 8zM0 11.186l4.833-4.107L0 2.878zM14 11.186V2.875L9.167 7.079z"/></symbol><symbol id="coding" viewBox="0 0 480 480"><path d="M56 416c-30.872 0-56 25.128-56 56 0 4.424 3.576 8 8 8h96c4.424 0 8-3.576 8-8 0-30.872-25.128-56-56-56zm-39.192 48C19.992 448.36 32.36 436.072 48 432.88V448h16v-15.12c15.64 3.2 28.008 15.48 31.192 31.12H16.808zM472 344h-14.032a83.97 83.97 0 0 0-1.392-3.328l9.928-9.928a7.991 7.991 0 0 0 0-11.312l-33.936-33.936c-1.656-1.656-3.84-2.376-6.008-2.272C439.24 276.496 448 263.32 448 248V40c0-22.056-17.944-40-40-40H40C17.944 0 0 17.944 0 40v208c0 22.056 17.944 40 40 40h104.4l-30.224 56H100c-15.44 0-28 12.56-28 28s12.56 28 28 28h172c0 4.424 3.576 8 8 8h14.032a83.97 83.97 0 0 0 1.392 3.328l-9.928 9.928a7.991 7.991 0 0 0 0 11.312l33.936 33.936a7.991 7.991 0 0 0 11.312 0l9.928-9.928a83.97 83.97 0 0 0 3.328 1.392V472c0 4.424 3.576 8 8 8h48c4.424 0 8-3.576 8-8v-14.032a83.97 83.97 0 0 0 3.328-1.392l9.928 9.928a7.991 7.991 0 0 0 11.312 0l33.936-33.936a7.991 7.991 0 0 0 0-11.312l-9.928-9.928a83.97 83.97 0 0 0 1.392-3.328H472c4.424 0 8-3.576 8-8v-48c0-4.424-3.576-8-8-8zM16 40c0-13.232 10.768-24 24-24h368c13.232 0 24 10.768 24 24v168H16V40zm24 232c-13.232 0-24-10.768-24-24v-24h416v24c0 13.232-10.768 24-24 24H40zm381.152 13.6l-9.824 9.824a83.97 83.97 0 0 0-3.328-1.392V288c4.632 0 9.008-.944 13.152-2.4zM344 288v6.032a83.97 83.97 0 0 0-3.328 1.392L333.248 288H344zm-27.08 0l-6.896 6.896-4.696-6.896h11.592zM272 384H100c-6.616 0-12-5.384-12-12s5.384-12 12-12h172v24zm-139.644-40.008L162.576 288h123.392l12.544 18.408-13.016 13.016a7.991 7.991 0 0 0 0 11.312l9.928 9.928a83.97 83.97 0 0 0-1.392 3.328H132.356zM464 392h-11.672a8.005 8.005 0 0 0-7.632 5.592c-1.216 3.864-2.856 7.8-4.88 11.672a8.002 8.002 0 0 0 1.44 9.36l8.288 8.288-22.624 22.624-8.288-8.288a8.017 8.017 0 0 0-9.36-1.44c-3.872 2.024-7.808 3.664-11.672 4.88a8.019 8.019 0 0 0-5.6 7.64V464h-32v-11.672a8.005 8.005 0 0 0-5.592-7.632c-3.864-1.216-7.8-2.856-11.672-4.88a8.015 8.015 0 0 0-9.36 1.44l-8.288 8.288-22.624-22.624 8.288-8.288a8.002 8.002 0 0 0 1.44-9.36c-2.024-3.872-3.664-7.808-4.88-11.672a8.019 8.019 0 0 0-7.64-5.6H288v-32h11.672a8.005 8.005 0 0 0 7.632-5.592c1.216-3.864 2.856-7.8 4.88-11.672a8.002 8.002 0 0 0-1.44-9.36l-8.288-8.288 22.624-22.624 8.288 8.288a7.99 7.99 0 0 0 9.36 1.44c3.872-2.024 7.808-3.664 11.672-4.88a8.019 8.019 0 0 0 5.6-7.64V288h32v11.672a8.005 8.005 0 0 0 5.592 7.632c3.864 1.216 7.8 2.856 11.672 4.88a7.992 7.992 0 0 0 9.36-1.44l8.288-8.288 22.624 22.624-8.288 8.288a8.002 8.002 0 0 0-1.44 9.36c2.024 3.872 3.664 7.808 4.88 11.672a8.019 8.019 0 0 0 7.64 5.6H464v32z"/><path d="M376 328c-26.472 0-48 21.528-48 48s21.528 48 48 48 48-21.528 48-48-21.528-48-48-48zm0 80c-17.648 0-32-14.352-32-32s14.352-32 32-32 32 14.352 32 32-14.352 32-32 32zM157.656 61.656l-11.312-11.312-56 56a7.991 7.991 0 0 0 0 11.312l56 56 11.312-11.312L107.312 112l50.344-50.344zM333.656 106.344l-56-56-11.312 11.312L316.688 112l-50.344 50.344 11.312 11.312 56-56a7.991 7.991 0 0 0 0-11.312zM168.836 172.425l71.979-143.958 14.31 7.155-71.979 143.958zM312 160h16v16h-16zM344 160h16v16h-16zM376 160h16v16h-16z"/></symbol><symbol id="dribble-logo" viewBox="0 0 508.52 508.52"><path d="M254.26 0C114.07 0 0 114.07 0 254.26s114.07 254.26 254.26 254.26 254.26-114.07 254.26-254.26S394.45 0 254.26 0zm168.1 117.25c30.257 36.963 48.532 84.033 49.009 135.3-7.183-1.526-78.916-16.082-151.22-6.992l-4.672-11.219a683.718 683.718 0 0 0-14.397-31.465c80.314-32.768 116.7-79.425 121.28-85.622zm-168.1-79.838c55.174 0 105.61 20.69 143.94 54.729-3.877 5.562-36.55 49.485-113.78 78.439-35.596-65.377-75.038-119.09-81.045-127.13a216.764 216.764 0 0 1 50.883-6.038zm-92.328 20.627c5.721 7.85 44.527 61.626 80.505 125.6-101.58 26.983-191.04 26.602-200.77 26.475 14.079-67.411 59.497-123.41 120.26-152.08zm-124.87 196.54l.095-6.643c9.503.222 114.77 1.557 223.18-30.893a708.736 708.736 0 0 1 17.639 36.868l-8.581 2.574c-111.97 36.2-171.56 134.92-176.52 143.31-34.642-38.488-55.778-89.403-55.81-145.21zm217.17 217.17c-50.185 0-96.46-17.099-133.3-45.83 3.909-7.946 47.896-92.932 170.39-135.62l1.43-.477c30.511 79.202 43.065 145.63 46.339 164.7-26.03 11.092-54.729 17.258-84.859 17.226zm121.38-37.122c-2.225-13.222-13.825-76.786-42.175-154.84 68.046-10.901 127.83 6.96 135.27 9.312-9.725 60.387-44.336 112.61-93.091 145.53z"/></symbol><symbol id="facebook-logo" viewBox="0 0 96.124 96.123"><path d="M72.089.02L59.624 0C45.62 0 36.57 9.285 36.57 23.656v10.907H24.037a1.96 1.96 0 0 0-1.96 1.961v15.803a1.96 1.96 0 0 0 1.96 1.96H36.57v39.876a1.96 1.96 0 0 0 1.96 1.96h16.352a1.96 1.96 0 0 0 1.96-1.96V54.287h14.654a1.96 1.96 0 0 0 1.96-1.96l.006-15.803a1.963 1.963 0 0 0-1.961-1.961H56.842v-9.246c0-4.444 1.059-6.7 6.848-6.7l8.397-.003a1.96 1.96 0 0 0 1.959-1.96V1.98A1.96 1.96 0 0 0 72.089.02z"/></symbol><symbol id="left-arrow-angle" viewBox="0 0 548.8 548.8"><path d="M476.25 20.818C462.395-.412 433.967-6.385 412.725 7.464l-304.9 199.01c-27.185 16.01-42.742 40.692-42.742 67.92s15.557 51.903 42.742 67.926l304.9 199c7.748 5.056 16.445 7.473 25.049 7.473 14.982 0 29.682-7.332 38.477-20.814 13.861-21.229 7.883-49.67-13.348-63.525l-291.2-190.06 291.2-190.05c21.23-13.857 27.203-42.296 13.348-63.527z"/></symbol><symbol id="pinterest" viewBox="0 0 310.05 310.05"><path d="M245.26 31.772C223.918 11.284 194.383 0 162.096 0c-49.32 0-79.654 20.217-96.416 37.176-20.658 20.9-32.504 48.651-32.504 76.139 0 34.513 14.436 61.003 38.611 70.858 1.623.665 3.256 1 4.857 1 5.1 0 9.141-3.337 10.541-8.69.816-3.071 2.707-10.647 3.529-13.936 1.76-6.495.338-9.619-3.5-14.142-6.992-8.273-10.248-18.056-10.248-30.788 0-37.818 28.16-78.011 80.352-78.011 41.412 0 67.137 23.537 67.137 61.425 0 23.909-5.15 46.051-14.504 62.35-6.5 11.325-17.93 24.825-35.477 24.825-7.588 0-14.404-3.117-18.705-8.551-4.063-5.137-5.402-11.773-3.768-18.689 1.846-7.814 4.363-15.965 6.799-23.845 4.443-14.392 8.643-27.985 8.643-38.83 0-18.55-11.404-31.014-28.375-31.014-21.568 0-38.465 21.906-38.465 49.871 0 13.715 3.645 23.973 5.295 27.912-2.717 11.512-18.865 79.953-21.928 92.859-1.771 7.534-12.44 67.039 5.219 71.784 19.841 5.331 37.576-52.623 39.381-59.172 1.463-5.326 6.582-25.465 9.719-37.845 9.578 9.226 25 15.463 40.006 15.463 28.289 0 53.73-12.73 71.637-35.843 17.367-22.418 26.932-53.664 26.932-87.978 0-26.826-11.52-53.272-31.604-72.556z"/></symbol><symbol id="pizza" viewBox="0 0 512.003 512"><path d="M230.277 221.848a8.507 8.507 0 0 1-6.03-2.5 8.52 8.52 0 0 1 0-12.063l17.065-17.066a8.518 8.518 0 0 1 12.067 0 8.52 8.52 0 0 1 0 12.062l-17.066 17.067a8.53 8.53 0 0 1-6.036 2.5zm0 0M392.41 196.25a8.51 8.51 0 0 1-6.035-2.5 8.525 8.525 0 0 1 0-12.066l17.066-17.067a8.525 8.525 0 0 1 12.067 0 8.525 8.525 0 0 1 0 12.067L398.44 193.75a8.534 8.534 0 0 1-6.03 2.5zm0 0M298.543 298.648a8.507 8.507 0 0 1-6.031-2.5 8.525 8.525 0 0 1 0-12.066l17.066-17.066a8.525 8.525 0 0 1 12.067 0 8.525 8.525 0 0 1 0 12.066l-17.067 17.066a8.55 8.55 0 0 1-6.035 2.5zm0 0M76.68 281.582a8.507 8.507 0 0 1-6.032-2.5 8.525 8.525 0 0 1 0-12.066l17.067-17.067a8.525 8.525 0 0 1 12.066 0 8.525 8.525 0 0 1 0 12.067l-17.066 17.066a8.53 8.53 0 0 1-6.035 2.5zm0 0M383.875 375.445a8.507 8.507 0 0 1-6.031-2.5 8.525 8.525 0 0 1 0-12.066l17.066-17.066a8.525 8.525 0 0 1 12.067 0 8.525 8.525 0 0 1 0 12.066l-17.067 17.066a8.55 8.55 0 0 1-6.035 2.5zm0 0M196.145 119.453a8.511 8.511 0 0 1-6.032-2.504 8.52 8.52 0 0 1 0-12.062L207.18 87.82a8.518 8.518 0 0 1 12.066 0 8.52 8.52 0 0 1 0 12.063l-17.066 17.066a8.533 8.533 0 0 1-6.035 2.504zm0 0"/><path d="M255.871 477.863c-24.023 0-47.695-3.89-70.691-11.64a8.534 8.534 0 0 1-5.043-4.547 8.559 8.559 0 0 1-.117-6.801l80.414-194.336c1.628-3.934-.723-6.715-1.485-7.476-.758-.758-3.539-3.098-7.472-1.493L57.133 331.988a8.556 8.556 0 0 1-6.793-.12 8.487 8.487 0 0 1-4.559-5.044c-11.043-32.793-14.25-66.96-9.523-101.535C50.34 122.234 135.953 42.07 239.82 34.7c64.492-4.66 127.586 18.903 173.102 64.426s68.973 108.629 64.375 173.121c-7.406 103.848-87.574 189.43-190.633 203.508a227.093 227.093 0 0 1-30.793 2.11zm-56.516-25.09c27.579 7.961 56.122 10.028 85.008 6.059 95.094-12.977 169.075-91.96 175.91-187.805 4.25-59.554-17.406-117.82-59.425-159.836-42.008-42.027-100.266-63.597-159.825-59.476C145.168 58.53 66.168 132.5 53.164 227.602c-3.953 28.894-1.914 57.453 6.059 85.05l185.715-76.859c9.113-3.773 19.105-1.785 26.07 5.187 6.972 6.965 8.96 16.957 5.187 26.079zm0 0"/><path d="M138.613 511.977c-1.11 0-2.218-.211-3.265-.649C74.828 486.258 25.738 437.176.676 376.66a8.508 8.508 0 0 1 0-6.539 8.558 8.558 0 0 1 4.625-4.617l221.863-91.809a8.492 8.492 0 0 1 9.293 1.856 8.533 8.533 0 0 1 1.852 9.3L146.5 506.716a8.55 8.55 0 0 1-4.617 4.613c-1.051.43-2.16.649-3.27.649zM19.86 377.945c23.04 50.188 64.016 91.16 114.2 114.203l80.613-194.812zm0 0"/><path d="M255.828 512.004c-28.367 0-56.27-4.695-83.344-14.047a8.53 8.53 0 0 1-5.105-11.312l93.062-225.97c1.622-3.933-.742-6.714-1.507-7.476-.77-.758-3.551-3.12-7.493-1.457L25.898 346.094a8.504 8.504 0 0 1-6.757-.078 8.506 8.506 0 0 1-4.582-4.965C.973 302.488-3.13 262.133 2.355 221.098 17.758 106.02 108.91 15.89 224.015 1.922c79.223-9.574 156.77 16.922 212.794 72.816 56.02 55.883 82.754 133.364 73.34 212.578-13.66 114.926-103.387 206.282-218.2 222.16a263.198 263.198 0 0 1-36.12 2.528zm-69.164-27.375c33.305 10.129 67.89 12.793 102.938 7.96 107.132-14.827 190.851-100.058 203.601-207.288 8.797-73.973-16.152-146.317-68.445-198.488-52.29-52.157-124.723-76.981-198.68-67.942-107.398 13.031-192.43 97.125-206.8 204.496-4.72 35.293-1.852 70.043 8.535 103.422l217.05-90.809c9.102-3.796 19.114-1.851 26.11 5.114 6.996 6.96 9.011 16.945 5.257 26.074zm0 0"/><path d="M151.688 480.379a8.436 8.436 0 0 1-3.602-.8c-50.816-23.665-93.098-64.095-119.07-113.833a8.535 8.535 0 0 1 4.308-11.836l193.848-80.215a8.492 8.492 0 0 1 9.293 1.856 8.526 8.526 0 0 1 1.851 9.3L159.57 475.106a8.504 8.504 0 0 1-4.785 4.684c-1 .395-2.047.59-3.097.59zM48.632 366.043c23.004 40.09 57.554 73.07 98.652 94.137l67.387-162.844zm0 0M140.68 238.914c-30.582 0-55.465-24.883-55.465-55.465s24.883-55.465 55.465-55.465c30.582 0 55.465 24.883 55.465 55.465s-24.883 55.465-55.465 55.465zm0-93.863c-21.172 0-38.399 17.23-38.399 38.398 0 21.172 17.227 38.399 38.399 38.399s38.398-17.227 38.398-38.399c0-21.168-17.226-38.398-38.398-38.398zm0 0"/><path d="M154.945 204.766c-3.504 0-6.789-2.176-8.035-5.657a33.706 33.706 0 0 1-1.965-11.394 33.876 33.876 0 0 1 8.782-22.79 8.53 8.53 0 0 1 12.058-.597c3.496 3.164 3.754 8.559.598 12.047a16.847 16.847 0 0 0-4.363 11.34c0 1.95.324 3.844.972 5.64 1.59 4.45-.722 9.329-5.16 10.907a8.547 8.547 0 0 1-2.887.504zm0 0M119.348 179.184a8.531 8.531 0 0 1-8.535-8.536 8.53 8.53 0 0 1 8.535-8.53c4.062 0 7.797-1.868 10.238-5.13 2.832-3.77 8.176-4.511 11.945-1.699 3.774 2.836 4.531 8.184 1.7 11.95-5.614 7.472-14.54 11.945-23.883 11.945zm0 0M136.414 213.316a8.537 8.537 0 0 1-6.836-3.406c-2.441-3.258-6.18-5.129-10.238-5.129-4.711 0-8.535-3.812-8.535-8.531s3.824-8.535 8.535-8.535c9.344 0 18.277 4.465 23.89 11.941 2.833 3.762 2.067 9.114-1.699 11.946a8.51 8.51 0 0 1-5.117 1.714zm0 0M302.809 439.445c-30.582 0-55.465-24.882-55.465-55.465s24.883-55.464 55.465-55.464c30.586 0 55.468 24.882 55.468 55.464s-24.882 55.465-55.468 55.465zm0-93.863c-21.168 0-38.399 17.227-38.399 38.398s17.23 38.399 38.399 38.399c21.171 0 38.402-17.227 38.402-38.399s-17.23-38.398-38.402-38.398zm0 0"/><path d="M317.07 405.297a8.547 8.547 0 0 1-8.039-5.66 33.92 33.92 0 0 1-1.96-11.39 33.893 33.893 0 0 1 8.788-22.802c3.164-3.488 8.547-3.738 12.055-.59 3.492 3.168 3.754 8.57.59 12.06a16.802 16.802 0 0 0-4.36 11.331c0 1.953.325 3.84.973 5.64 1.586 4.446-.726 9.329-5.164 10.907-.957.34-1.93.504-2.883.504zm0 0M281.477 379.715c-4.711 0-8.532-3.817-8.532-8.535s3.82-8.532 8.532-8.532c4.07 0 7.8-1.87 10.242-5.128 2.832-3.766 8.172-4.524 11.945-1.7 3.762 2.832 4.531 8.184 1.7 11.946-5.618 7.476-14.544 11.949-23.887 11.949zm0 0M298.55 413.848a8.54 8.54 0 0 1-6.831-3.407c-2.442-3.257-6.18-5.129-10.242-5.129-4.711 0-8.532-3.812-8.532-8.53s3.82-8.536 8.532-8.536c9.343 0 18.277 4.465 23.894 11.938 2.832 3.765 2.063 9.113-1.7 11.949a8.554 8.554 0 0 1-5.12 1.715zm0 0M137.883 366.898c-3.508 0-6.793-2.175-8.04-5.66a33.7 33.7 0 0 1-1.964-11.39c0-8.45 3.117-16.54 8.781-22.793a8.534 8.534 0 1 1 12.656 11.453 16.84 16.84 0 0 0-4.363 11.34c0 1.945.324 3.84.973 5.64 1.59 4.446-.723 9.328-5.16 10.907a8.64 8.64 0 0 1-2.883.503zm0 0M396.676 324.246c-30.582 0-55.465-24.883-55.465-55.465s24.883-55.465 55.465-55.465 55.465 24.883 55.465 55.465-24.883 55.465-55.465 55.465zm0-93.863c-21.172 0-38.399 17.226-38.399 38.398s17.227 38.399 38.399 38.399 38.398-17.227 38.398-38.399-17.226-38.398-38.398-38.398zm0 0"/><path d="M410.934 290.098a8.553 8.553 0 0 1-8.04-5.657 33.96 33.96 0 0 1-1.96-11.394 33.92 33.92 0 0 1 8.789-22.8c3.164-3.49 8.55-3.735 12.058-.587 3.489 3.164 3.754 8.567.586 12.055a16.828 16.828 0 0 0-4.36 11.332c0 1.957.325 3.84.973 5.64 1.59 4.45-.722 9.329-5.16 10.907a8.514 8.514 0 0 1-2.886.504zm0 0M375.344 264.516c-4.711 0-8.535-3.817-8.535-8.536s3.824-8.53 8.535-8.53c4.07 0 7.797-1.868 10.238-5.13 2.832-3.761 8.176-4.515 11.945-1.699 3.766 2.836 4.532 8.184 1.7 11.95-5.614 7.472-14.54 11.945-23.883 11.945zm0 0M392.418 298.648a8.548 8.548 0 0 1-6.836-3.406c-2.441-3.258-6.176-5.129-10.238-5.129-4.711 0-8.535-3.812-8.535-8.531s3.824-8.535 8.535-8.535c9.344 0 18.277 4.465 23.89 11.941 2.836 3.762 2.067 9.114-1.695 11.946a8.546 8.546 0 0 1-5.121 1.714zm0 0M311.344 196.25c-30.582 0-55.465-24.883-55.465-55.465 0-30.582 24.883-55.465 55.465-55.465s55.465 24.883 55.465 55.465c0 30.582-24.883 55.465-55.465 55.465zm0-93.863c-21.172 0-38.399 17.226-38.399 38.398 0 21.168 17.227 38.399 38.399 38.399s38.398-17.23 38.398-38.399c0-21.172-17.226-38.398-38.398-38.398zm0 0"/><path d="M325.602 162.102a8.55 8.55 0 0 1-8.04-5.66 33.937 33.937 0 0 1-1.96-11.391c0-8.45 3.125-16.547 8.789-22.801 3.164-3.488 8.55-3.746 12.058-.59 3.488 3.168 3.754 8.57.586 12.059a16.82 16.82 0 0 0-4.36 11.332c0 1.953.325 3.84.973 5.64 1.59 4.446-.722 9.329-5.16 10.907a8.61 8.61 0 0 1-2.886.504zm0 0M290.012 136.52c-4.711 0-8.535-3.817-8.535-8.536s3.824-8.53 8.535-8.53c4.07 0 7.797-1.872 10.238-5.13 2.832-3.765 8.176-4.515 11.945-1.699 3.766 2.832 4.532 8.184 1.7 11.945-5.614 7.477-14.54 11.95-23.883 11.95zm0 0M307.086 170.648a8.544 8.544 0 0 1-6.836-3.402c-2.441-3.262-6.176-5.129-10.238-5.129a8.53 8.53 0 0 1-8.535-8.531 8.531 8.531 0 0 1 8.535-8.535c9.343 0 18.277 4.465 23.89 11.937 2.836 3.762 2.067 9.114-1.695 11.946a8.546 8.546 0 0 1-5.121 1.714zm0 0M123.613 401.047c-30.582 0-55.465-24.883-55.465-55.465 0-.215.016-.64.036-.863.246-3.207 2.285-6.196 5.254-7.414l79.835-33.032a8.52 8.52 0 0 1 9.25 1.797c10.676 10.516 16.555 24.551 16.555 39.512 0 30.582-24.883 55.465-55.465 55.465zm-38.015-50.313c2.601 18.852 18.652 33.246 38.015 33.246 21.172 0 38.399-17.23 38.399-38.398 0-8.5-2.746-16.574-7.825-23.219zm0 0"/></symbol><symbol id="right-arrow-angle" viewBox="0 0 548.8 548.8"><path d="M440.98 206.48L136.07 7.47C114.834-6.386 86.394-.419 72.545 20.823c-13.862 21.23-7.883 49.67 13.348 63.526l291.19 190.05-291.19 190.06c-21.23 13.855-27.203 42.295-13.348 63.525 8.801 13.482 23.489 20.814 38.477 20.814a45.697 45.697 0 0 0 25.049-7.473l304.9-199.01c27.19-16.011 42.748-40.687 42.748-67.921 0-27.232-15.551-51.901-42.742-67.912z"/></symbol><symbol id="twitter-logo-silhouette" viewBox="0 0 612 612"><path d="M612 116.26a250.714 250.714 0 0 1-72.088 19.772c25.929-15.527 45.777-40.155 55.184-69.411-24.322 14.379-51.169 24.82-79.775 30.48-22.907-24.437-55.49-39.658-91.63-39.658-69.334 0-125.55 56.217-125.55 125.51 0 9.828 1.109 19.427 3.251 28.606-104.33-5.24-196.84-55.223-258.75-131.17-10.823 18.51-16.98 40.078-16.98 63.101 0 43.559 22.181 81.993 55.835 104.48a125.556 125.556 0 0 1-56.867-15.756v1.568c0 60.806 43.291 111.55 100.69 123.1-10.517 2.83-21.607 4.398-33.08 4.398-8.107 0-15.947-.803-23.634-2.333 15.985 49.907 62.336 86.199 117.25 87.194-42.947 33.654-97.099 53.655-155.92 53.655-10.134 0-20.116-.612-29.944-1.721 55.567 35.681 121.54 56.485 192.44 56.485 230.95 0 357.19-191.29 357.19-357.19l-.421-16.253c24.666-17.593 46.005-39.697 62.794-64.861z"/></symbol><symbol id="website-design-symbol" viewBox="0 0 100 100"><path d="M62.924 94.729c-1.732-1.274-1.918-3.188-1.918-3.188l-.65-4.155H39.642l-.652 4.152s-.181 1.916-1.914 3.19c-1.732 1.274-3.099 2.368-1.732 2.554 1.317.178 13.74.016 14.656 0 .918.016 13.338.178 14.654 0 1.366-.184-.002-1.276-1.73-2.553zM26.666 61.538c5.534-.043 6.223-1.377 8.027-6.933 3.327-8.768 18.309 2.296 9.024 6.136-9.285 3.842-22.585.84-17.051.797z"/><path d="M83.41 3.756c-2.688-2.164-7.135-1.098-9.938 2.38l-28.39 40.336c-2.803 3.477-2.789 2.813-.104 4.975 2.685 2.164 2.038 2.319 4.841-1.158l33.376-36.317c2.803-3.48 2.901-8.053.215-10.216zm-7.301 4.828s-.416-.483-1.799-1.589c2.074-3.387 6.15-2.766 6.15-2.766-3.864 2.282-4.351 4.355-4.351 4.355z"/><path d="M96 17.386H83.516l-5.515 6h16v48h-88v-48h51.19l4.227-6H4a4 4 0 0 0-4 4v58a4 4 0 0 0 4 4h92a4 4 0 0 0 4-4v-58a4 4 0 0 0-4-4z"/></symbol></svg>